<svg width="49" height="49" fill="none" xmlns="http://www.w3.org/2000/svg"><circle cx="24.5" cy="24.5" r="23.5" stroke="#fff" stroke-width="2"/><path d="M24.496 19.998a4.511 4.511 0 00-4.502 4.502 4.511 4.511 0 004.502 4.502 4.511 4.511 0 004.502-4.502 4.511 4.511 0 00-4.502-4.502zM38 24.5c0-1.864.016-3.712-.088-5.573-.105-2.161-.598-4.08-2.179-5.66-1.584-1.584-3.498-2.073-5.66-2.178C28.208 10.984 26.361 11 24.5 11c-1.864 0-3.712-.017-5.573.088-2.161.104-4.08.598-5.66 2.178-1.584 1.584-2.073 3.499-2.178 5.66C10.984 20.792 11 22.64 11 24.5c0 1.86-.017 3.712.088 5.573.104 2.161.598 4.08 2.178 5.66 1.584 1.584 3.499 2.074 5.66 2.178 1.865.105 3.712.088 5.573.088 1.864 0 3.711.017 5.572-.088 2.162-.105 4.08-.598 5.66-2.178 1.584-1.584 2.074-3.499 2.179-5.66.108-1.861.087-3.709.087-5.573zm-13.503 6.927A6.917 6.917 0 0117.57 24.5a6.917 6.917 0 016.926-6.927 6.917 6.917 0 016.927 6.927 6.917 6.917 0 01-6.927 6.927zm7.21-12.52a1.616 1.616 0 01-1.617-1.617c0-.895.723-1.618 1.618-1.618a1.616 1.616 0 011.495 2.237 1.615 1.615 0 01-1.495.998z" fill="#fff"/></svg>