<svg width="49" height="49" fill="none" xmlns="http://www.w3.org/2000/svg"><circle cx="24.5" cy="24.5" r="23.5" stroke="#fff" stroke-width="2"/><path d="M38.312 19.219c.21-.703 0-1.219-.99-1.219h-3.284c-.835 0-1.217.446-1.427.936 0 0-1.669 4.112-4.034 6.779-.764.775-1.113 1.02-1.529 1.02-.208 0-.51-.245-.51-.948V19.22c0-.844-.241-1.219-.938-1.219h-5.159c-.52 0-.835.39-.835.762 0 .799 1.183.983 1.304 3.234v4.882c0 1.069-.19 1.264-.61 1.264-1.112 0-3.819-4.127-5.425-8.852-.313-.918-.629-1.288-1.467-1.288h-3.282c-.939 0-1.126.446-1.126.936 0 .88 1.113 5.235 5.182 10.996C16.895 33.868 20.714 36 24.193 36c2.085 0 2.343-.473 2.343-1.29v-2.973c0-.947.2-1.138.86-1.138.485 0 1.32.248 3.268 2.143C32.888 34.99 33.257 36 34.507 36h3.281c.938 0 1.406-.474 1.137-1.409-.295-.93-1.358-2.283-2.768-3.885-.767-.913-1.912-1.896-2.261-2.388-.487-.633-.346-.913 0-1.476.001.002 4-5.688 4.416-7.622z" fill="#fff"/></svg>